<svg width="1280" height="640" viewBox="0 0 1280 640" fill="none" xmlns="http://www.w3.org/2000/svg">
<line x1="193.5" y1="2.07532e-08" x2="193.5" y2="640" stroke="white" stroke-opacity="0.03"/>
<line x1="129.5" y1="2.07532e-08" x2="129.5" y2="640" stroke="white" stroke-opacity="0.03"/>
<line x1="65.5" y1="2.07532e-08" x2="65.5" y2="640" stroke="white" stroke-opacity="0.03"/>
<line y1="64.5" x2="1280" y2="64.5" stroke="white" stroke-opacity="0.03"/>
<line y1="128.5" x2="1280" y2="128.5" stroke="white" stroke-opacity="0.03"/>
<line y1="192.5" x2="1280" y2="192.5" stroke="white" stroke-opacity="0.03"/>
<line y1="256.5" x2="1280" y2="256.5" stroke="white" stroke-opacity="0.03"/>
<line y1="320.5" x2="1280" y2="320.5" stroke="white" stroke-opacity="0.03"/>
<line y1="384.5" x2="1280" y2="384.5" stroke="white" stroke-opacity="0.03"/>
<line y1="448.5" x2="1280" y2="448.5" stroke="white" stroke-opacity="0.03"/>
<line y1="512.5" x2="1280" y2="512.5" stroke="white" stroke-opacity="0.03"/>
<line y1="576.5" x2="1280" y2="576.5" stroke="white" stroke-opacity="0.03"/>
<line x1="1217.5" y1="2.07532e-08" x2="1217.5" y2="640" stroke="white" stroke-opacity="0.03"/>
<line x1="1153.5" y1="2.07532e-08" x2="1153.5" y2="640" stroke="white" stroke-opacity="0.03"/>
<line x1="1089.5" y1="2.07532e-08" x2="1089.5" y2="640" stroke="white" stroke-opacity="0.03"/>
<line x1="1025.5" y1="2.07532e-08" x2="1025.5" y2="640" stroke="white" stroke-opacity="0.03"/>
<line x1="961.5" y1="2.07532e-08" x2="961.5" y2="640" stroke="white" stroke-opacity="0.03"/>
<line x1="897.5" y1="2.07532e-08" x2="897.5" y2="640" stroke="white" stroke-opacity="0.03"/>
<line x1="833.5" y1="2.07532e-08" x2="833.5" y2="640" stroke="white" stroke-opacity="0.03"/>
<line x1="769.5" y1="2.07532e-08" x2="769.5" y2="640" stroke="white" stroke-opacity="0.03"/>
<line x1="705.5" y1="2.07532e-08" x2="705.5" y2="640" stroke="white" stroke-opacity="0.03"/>
<line x1="641.5" y1="2.07532e-08" x2="641.5" y2="640" stroke="white" stroke-opacity="0.03"/>
<line x1="577.5" y1="2.07532e-08" x2="577.5" y2="640" stroke="white" stroke-opacity="0.03"/>
<line x1="513.5" y1="2.07532e-08" x2="513.5" y2="640" stroke="white" stroke-opacity="0.03"/>
<line x1="449.5" y1="2.07532e-08" x2="449.5" y2="640" stroke="white" stroke-opacity="0.03"/>
<line x1="385.5" y1="2.07532e-08" x2="385.5" y2="640" stroke="white" stroke-opacity="0.03"/>
<line x1="321.5" y1="2.07532e-08" x2="321.5" y2="640" stroke="white" stroke-opacity="0.03"/>
<line x1="257.5" y1="2.07532e-08" x2="257.5" y2="640" stroke="white" stroke-opacity="0.03"/>
</svg>
