<svg width="116" height="33" viewBox="0 0 116 33" fill="none" xmlns="http://www.w3.org/2000/svg">
<g id="Group 626020">
<g id="Group 626019">
<g id="Hack the">
<path d="M0.0559082 14.0454V0.345703H3.42033V5.61483H11.4108V0.345703H14.7753V14.0454H11.4108V8.7763H3.42033V14.0454H0.0559082Z" fill="white"/>
<path d="M15.402 14.0454L21.458 0.345703H25.9158L31.9718 14.0454H28.313L23.6869 3.57041L19.0608 14.0454H15.402Z" fill="white"/>
<path d="M46.9024 14.0454H38.0708C34.5381 14.0454 32.183 11.6849 32.183 8.144V6.24712C32.183 2.70627 34.5381 0.345703 38.0708 0.345703H46.6921V3.50718H38.0708C36.5568 3.50718 35.5475 4.60315 35.5475 6.24712V8.144C35.5475 9.78797 36.5568 10.8839 38.0708 10.8839H46.9024V14.0454Z" fill="white"/>
<path d="M48.5797 14.0454V0.345703H51.9441V5.17222L58.736 0.345703H64.2243L54.4674 7.27987L64.2243 14.0454H58.6309L51.9441 9.40859V14.0454H48.5797Z" fill="white"/>
<path d="M83.1423 0.345703V3.50718H77.8853V14.0454H74.5209V3.50718H69.264V0.345703H83.1423Z" fill="white"/>
<path d="M84.6183 14.0454V0.345703H87.9827V5.61483H95.9732V0.345703H99.3377V14.0454H95.9732V8.7763H87.9827V14.0454H84.6183Z" fill="white"/>
<path d="M115.399 10.8839V14.0454H101.436V0.345703H115.399V3.50718H104.801V5.61483H114.558V8.7763H104.801V10.8839H115.399Z" fill="white"/>
</g>
<g id="universe">
<path d="M15.7946 19.3484V26.8951C15.7946 30.3218 13.4753 32.6062 9.99617 32.6062H5.85441C2.37533 32.6062 0.0559387 30.3218 0.0559387 26.8951V19.3484H3.36935V26.8951C3.36935 28.4861 4.36337 29.5467 5.85441 29.5467H9.99617C11.4872 29.5467 12.4812 28.4861 12.4812 26.8951V19.3484H15.7946Z" fill="url(#paint0_linear_1_17)"/>
<path d="M17.4578 32.6062V19.3484H23.5462L28.6406 30.8725V19.3484H31.954V32.6062H26.0106L20.7712 20.7558V32.6062H17.4578Z" fill="url(#paint1_linear_1_17)"/>
<path d="M34.0208 32.6062V19.3484H37.3342V32.6062H34.0208Z" fill="url(#paint2_linear_1_17)"/>
<path d="M37.9506 19.3484H41.554L46.1099 29.4855L50.6659 19.3484H54.2692L48.3051 32.6062H43.9148L37.9506 19.3484Z" fill="url(#paint3_linear_1_17)"/>
<path d="M68.6421 29.5467V32.6062H54.8914V19.3484H68.6421V22.4079H58.2048V24.4475H67.8137V27.507H58.2048V29.5467H68.6421Z" fill="url(#paint4_linear_1_17)"/>
<path d="M70.3017 32.6062V19.3484H80.5112C82.872 19.3484 84.7979 21.1229 84.7979 23.7948C84.7979 26.1813 83.2861 27.8334 81.3188 28.2005L84.4665 32.6062H80.4283L77.322 28.2617H73.6151V32.6062H70.3017ZM73.6151 25.2022H79.4757C80.8425 25.2022 81.4845 24.6515 81.4845 23.7948C81.4845 22.9586 80.8425 22.4079 79.4757 22.4079H73.6151V25.2022Z" fill="url(#paint5_linear_1_17)"/>
<path d="M86.3981 32.6062V29.5467H95.3029C96.4833 29.5467 96.8768 29.1796 96.8768 28.5269C96.8768 27.8538 96.4833 27.507 95.3029 27.507H90.6434C87.5371 27.507 86.0461 25.6509 86.0461 23.3053C86.0461 20.9393 87.5371 19.3484 90.7263 19.3484H99.424V22.4079H90.7263C89.5459 22.4079 89.1524 22.7546 89.1524 23.4277C89.1524 24.0804 89.5459 24.4475 90.7263 24.4475H95.3857C98.4921 24.4475 99.9831 26.3036 99.9831 28.6492C99.9831 31.0152 98.4921 32.6062 95.3029 32.6062H86.3981Z" fill="url(#paint6_linear_1_17)"/>
<path d="M115.399 29.5467V32.6062H101.648V19.3484H115.399V22.4079H104.961V24.4475H114.57V27.507H104.961V29.5467H115.399Z" fill="url(#paint7_linear_1_17)"/>
</g>
</g>
</g>
<defs>
<linearGradient id="paint0_linear_1_17" x1="6.50003" y1="16.0002" x2="6.2428" y2="35.3961" gradientUnits="userSpaceOnUse">
<stop stop-color="#A891D3"/>
<stop offset="0.125" stop-color="#7138C7"/>
<stop offset="1" stop-color="#BB39B8"/>
</linearGradient>
<linearGradient id="paint1_linear_1_17" x1="6.50003" y1="16.0002" x2="6.2428" y2="35.3961" gradientUnits="userSpaceOnUse">
<stop stop-color="#A891D3"/>
<stop offset="0.125" stop-color="#7138C7"/>
<stop offset="1" stop-color="#BB39B8"/>
</linearGradient>
<linearGradient id="paint2_linear_1_17" x1="6.50003" y1="16.0002" x2="6.2428" y2="35.3961" gradientUnits="userSpaceOnUse">
<stop stop-color="#A891D3"/>
<stop offset="0.125" stop-color="#7138C7"/>
<stop offset="1" stop-color="#BB39B8"/>
</linearGradient>
<linearGradient id="paint3_linear_1_17" x1="6.50003" y1="16.0002" x2="6.2428" y2="35.3961" gradientUnits="userSpaceOnUse">
<stop stop-color="#A891D3"/>
<stop offset="0.125" stop-color="#7138C7"/>
<stop offset="1" stop-color="#BB39B8"/>
</linearGradient>
<linearGradient id="paint4_linear_1_17" x1="6.50003" y1="16.0002" x2="6.2428" y2="35.3961" gradientUnits="userSpaceOnUse">
<stop stop-color="#A891D3"/>
<stop offset="0.125" stop-color="#7138C7"/>
<stop offset="1" stop-color="#BB39B8"/>
</linearGradient>
<linearGradient id="paint5_linear_1_17" x1="6.50003" y1="16.0002" x2="6.2428" y2="35.3961" gradientUnits="userSpaceOnUse">
<stop stop-color="#A891D3"/>
<stop offset="0.125" stop-color="#7138C7"/>
<stop offset="1" stop-color="#BB39B8"/>
</linearGradient>
<linearGradient id="paint6_linear_1_17" x1="6.50003" y1="16.0002" x2="6.2428" y2="35.3961" gradientUnits="userSpaceOnUse">
<stop stop-color="#A891D3"/>
<stop offset="0.125" stop-color="#7138C7"/>
<stop offset="1" stop-color="#BB39B8"/>
</linearGradient>
<linearGradient id="paint7_linear_1_17" x1="6.50003" y1="16.0002" x2="6.2428" y2="35.3961" gradientUnits="userSpaceOnUse">
<stop stop-color="#A891D3"/>
<stop offset="0.125" stop-color="#7138C7"/>
<stop offset="1" stop-color="#BB39B8"/>
</linearGradient>
</defs>
</svg>
