<svg width="146" height="35" viewBox="0 0 146 35" fill="none" xmlns="http://www.w3.org/2000/svg">
<path d="M15.0559 15.0454V1.3457H18.4203V6.61483H26.4108V1.3457H29.7753V15.0454H26.4108V9.7763H18.4203V15.0454H15.0559Z" fill="white"/>
<path d="M30.402 15.0454L36.458 1.3457H40.9158L46.9718 15.0454H43.313L38.6869 4.57041L34.0608 15.0454H30.402Z" fill="white"/>
<path d="M61.9024 15.0454H53.0708C49.5381 15.0454 47.183 12.6849 47.183 9.144V7.24712C47.183 3.70627 49.5381 1.3457 53.0708 1.3457H61.6921V4.50718H53.0708C51.5568 4.50718 50.5475 5.60315 50.5475 7.24712V9.144C50.5475 10.788 51.5568 11.8839 53.0708 11.8839H61.9024V15.0454Z" fill="white"/>
<path d="M63.5797 15.0454V1.3457H66.9441V6.17222L73.736 1.3457H79.2243L69.4674 8.27987L79.2243 15.0454H73.6309L66.9441 10.4086V15.0454H63.5797Z" fill="white"/>
<path d="M98.1423 1.3457V4.50718H92.8853V15.0454H89.5209V4.50718H84.264V1.3457H98.1423Z" fill="white"/>
<path d="M99.6183 15.0454V1.3457H102.983V6.61483H110.973V1.3457H114.338V15.0454H110.973V9.7763H102.983V15.0454H99.6183Z" fill="white"/>
<path d="M130.399 11.8839V15.0454H116.436V1.3457H130.399V4.50718H119.801V6.61483H129.558V9.7763H119.801V11.8839H130.399Z" fill="white"/>
<path d="M30.7946 20.3484V27.8951C30.7946 31.3218 28.4753 33.6062 24.9962 33.6062H20.8544C17.3753 33.6062 15.0559 31.3218 15.0559 27.8951V20.3484H18.3693V27.8951C18.3693 29.4861 19.3634 30.5467 20.8544 30.5467H24.9962C26.4872 30.5467 27.4812 29.4861 27.4812 27.8951V20.3484H30.7946Z" fill="url(#paint0_linear_1_16)"/>
<path d="M32.4578 33.6062V20.3484H38.5462L43.6406 31.8725V20.3484H46.954V33.6062H41.0106L35.7712 21.7558V33.6062H32.4578Z" fill="url(#paint1_linear_1_16)"/>
<path d="M49.0208 33.6062V20.3484H52.3342V33.6062H49.0208Z" fill="url(#paint2_linear_1_16)"/>
<path d="M52.9506 20.3484H56.554L61.1099 30.4855L65.6659 20.3484H69.2692L63.3051 33.6062H58.9148L52.9506 20.3484Z" fill="url(#paint3_linear_1_16)"/>
<path d="M83.6421 30.5467V33.6062H69.8914V20.3484H83.6421V23.4079H73.2048V25.4475H82.8137V28.507H73.2048V30.5467H83.6421Z" fill="url(#paint4_linear_1_16)"/>
<path d="M85.3017 33.6062V20.3484H95.5112C97.872 20.3484 99.7979 22.1229 99.7979 24.7948C99.7979 27.1813 98.2861 28.8334 96.3188 29.2005L99.4665 33.6062H95.4283L92.322 29.2617H88.6151V33.6062H85.3017ZM88.6151 26.2022H94.4757C95.8425 26.2022 96.4845 25.6515 96.4845 24.7948C96.4845 23.9586 95.8425 23.4079 94.4757 23.4079H88.6151V26.2022Z" fill="url(#paint5_linear_1_16)"/>
<path d="M101.398 33.6062V30.5467H110.303C111.483 30.5467 111.877 30.1796 111.877 29.5269C111.877 28.8538 111.483 28.507 110.303 28.507H105.643C102.537 28.507 101.046 26.6509 101.046 24.3053C101.046 21.9393 102.537 20.3484 105.726 20.3484H114.424V23.4079H105.726C104.546 23.4079 104.152 23.7546 104.152 24.4277C104.152 25.0804 104.546 25.4475 105.726 25.4475H110.386C113.492 25.4475 114.983 27.3036 114.983 29.6492C114.983 32.0152 113.492 33.6062 110.303 33.6062H101.398Z" fill="url(#paint6_linear_1_16)"/>
<path d="M130.399 30.5467V33.6062H116.648V20.3484H130.399V23.4079H119.961V25.4475H129.57V28.507H119.961V30.5467H130.399Z" fill="url(#paint7_linear_1_16)"/>
<path d="M7.44 35H5.08C3.28 35 1.8 33.76 1.8 31.68V20.4L0 17.56L1.8 14.64V3.32C1.8 1.24 3.28 0 5.08 0H7.44V2.48H6.04C5.2 2.48 4.64 3 4.64 3.84V14.84L2.92 17.56L4.64 20.2V31.16C4.64 32 5.2 32.52 6.04 32.52H7.44V35Z" fill="white"/>
<path d="M138 35H140.36C142.16 35 143.64 33.76 143.64 31.68V20.4L145.44 17.56L143.64 14.64V3.32C143.64 1.24 142.16 0 140.36 0H138V2.48H139.4C140.24 2.48 140.8 3 140.8 3.84V14.84L142.52 17.56L140.8 20.2V31.16C140.8 32 140.24 32.52 139.4 32.52H138V35Z" fill="white"/>
<defs>
<linearGradient id="paint0_linear_1_16" x1="21.5" y1="17.0002" x2="21.2428" y2="36.3961" gradientUnits="userSpaceOnUse">
<stop stop-color="#A891D3"/>
<stop offset="0.125" stop-color="#7138C7"/>
<stop offset="1" stop-color="#BB39B8"/>
</linearGradient>
<linearGradient id="paint1_linear_1_16" x1="21.5" y1="17.0002" x2="21.2428" y2="36.3961" gradientUnits="userSpaceOnUse">
<stop stop-color="#A891D3"/>
<stop offset="0.125" stop-color="#7138C7"/>
<stop offset="1" stop-color="#BB39B8"/>
</linearGradient>
<linearGradient id="paint2_linear_1_16" x1="21.5" y1="17.0002" x2="21.2428" y2="36.3961" gradientUnits="userSpaceOnUse">
<stop stop-color="#A891D3"/>
<stop offset="0.125" stop-color="#7138C7"/>
<stop offset="1" stop-color="#BB39B8"/>
</linearGradient>
<linearGradient id="paint3_linear_1_16" x1="21.5" y1="17.0002" x2="21.2428" y2="36.3961" gradientUnits="userSpaceOnUse">
<stop stop-color="#A891D3"/>
<stop offset="0.125" stop-color="#7138C7"/>
<stop offset="1" stop-color="#BB39B8"/>
</linearGradient>
<linearGradient id="paint4_linear_1_16" x1="21.5" y1="17.0002" x2="21.2428" y2="36.3961" gradientUnits="userSpaceOnUse">
<stop stop-color="#A891D3"/>
<stop offset="0.125" stop-color="#7138C7"/>
<stop offset="1" stop-color="#BB39B8"/>
</linearGradient>
<linearGradient id="paint5_linear_1_16" x1="21.5" y1="17.0002" x2="21.2428" y2="36.3961" gradientUnits="userSpaceOnUse">
<stop stop-color="#A891D3"/>
<stop offset="0.125" stop-color="#7138C7"/>
<stop offset="1" stop-color="#BB39B8"/>
</linearGradient>
<linearGradient id="paint6_linear_1_16" x1="21.5" y1="17.0002" x2="21.2428" y2="36.3961" gradientUnits="userSpaceOnUse">
<stop stop-color="#A891D3"/>
<stop offset="0.125" stop-color="#7138C7"/>
<stop offset="1" stop-color="#BB39B8"/>
</linearGradient>
<linearGradient id="paint7_linear_1_16" x1="21.5" y1="17.0002" x2="21.2428" y2="36.3961" gradientUnits="userSpaceOnUse">
<stop stop-color="#A891D3"/>
<stop offset="0.125" stop-color="#7138C7"/>
<stop offset="1" stop-color="#BB39B8"/>
</linearGradient>
</defs>
</svg>
